<?xml version="1.0" encoding="UTF-8"?>
<!-- Generator: Adobe Illustrator 24.3.0, SVG Export Plug-In . SVG Version: 6.00 Build 0)  -->
<svg version="1.1" id="Layer_1" xmlns="http://www.w3.org/2000/svg" xmlns:xlink="http://www.w3.org/1999/xlink" x="0px" y="0px" viewBox="0 0 259.4 51.3" style="enable-background:new 0 0 259.4 51.3;" xml:space="preserve">
<style type="text/css">
	.st0{fill-rule:evenodd;clip-rule:evenodd;fill:#66B22E;}
	.st1{enable-background:new    ;}
	.st2{fill:#66B22E;}
</style>
<g>
	<path class="st0" d="M53.9,51.3c0,0,0-0.1,0.1-0.2c0-0.1-0.1-0.1-0.1-0.2c-0.9-1.1-1.6-2.4-2.1-3.8c-0.1-0.4-0.3-0.8-0.5-1.2   c-1.1-2.3-2.7-4.1-5.3-4.7c-1.3-0.3-1.2-0.2-2.1,0.9c0.1,0.1,0.1,0.2,0.2,0.2c1.5,1,2.6,2.3,3.3,4c0.2,0.5,0.5,1.1,0.8,1.5   c1,1.3,2.4,2.2,3.9,2.8C52.7,51,53.3,51.1,53.9,51.3z"/>
	<path class="st0" d="M0,32.6c0.1,0,0.2,0.1,0.3,0.1c1.5,0.5,3,0.9,4.5,1.4c2.2,0.7,4.5,0.8,6.7,0c0.6-0.2,1.2-0.5,1.7-1   c0.2-0.2,0-0.9,0-1.3c0-0.4-0.1-0.5-0.5-0.3c-1,0.4-2.1,0.6-3.2,0.3c-0.8-0.2-1.5-0.4-2.3-0.6c-2.6-1-4.9-0.1-7.1,1.3   C0.1,32.5,0,32.6,0,32.6z"/>
	<path class="st0" d="M51.2,8.1c-0.1,0.1-0.3,0.1-0.3,0.2c-1.4,1.2-3.2,1.8-5,2.3c-2.5,0.7-3.7,2.5-4.2,5c0,0.2,0,0.4,0.1,0.6   c0.3,0.3,0.7,0.6,1,0.9c0.1-0.1,0.2-0.2,0.2-0.2c0.4-0.7,1-1.2,1.7-1.5c0.9-0.4,1.7-0.8,2.6-1.2C49.6,12.8,50.9,10.9,51.2,8.1z"/>
	<path class="st0" d="M1,21.1c0.1,0.1,0.2,0.2,0.2,0.2c1.9,1.3,3.8,2.5,5.7,3.8c1.7,1.1,3.5,1.9,5.6,1.4c0.9-0.2,0.9-0.2,1.1-1   c0.1-0.4,0-0.6-0.4-0.6c-1.1-0.2-2.2-0.6-3.1-1.3c-0.9-0.6-1.7-1.2-2.6-1.9C5.5,20,3.3,20.3,1,21.1z"/>
	<path class="st0" d="M7,10.1c0,0.2,0,0.2,0.1,0.2c0.1,0.1,0.2,0.2,0.3,0.3c1.1,1.1,1.9,2.3,2.3,3.8c0.1,0.3,0.2,0.7,0.4,1   c0.5,0.7,0.9,1.5,1.5,2.2c1.2,1.2,2.7,1.9,4.4,2.3c0.1,0,0.3,0,0.3,0c0.3-0.4,0.6-0.8,1-1.2c0-0.1,0-0.1-0.1-0.1   c-0.1-0.1-0.2-0.1-0.4-0.2c-1-0.5-1.9-1.2-2.5-2.3c-0.3-0.6-0.7-1.2-1-1.8c-1-2-2.7-3.3-4.9-3.8C7.9,10.3,7.5,10.2,7,10.1z"/>
	<path class="st0" d="M22.9,14.1c-1-1.2-1.3-2.6-1.6-4c-0.6-2.9-2-5.3-4.6-6.8c-0.2-0.1-0.4-0.3-0.8-0.5C16,3,16,3.1,16,3.2   c1.1,1.7,1.4,3.7,1.5,5.6c0.1,2.5,1.4,4.5,3.5,5.8c0.2,0.1,0.4,0.2,0.5,0.2C22,14.6,22.4,14.3,22.9,14.1z"/>
	<path class="st0" d="M40.2,2c-0.1,0.1-0.1,0.2-0.2,0.3c-0.6,1.7-1.8,3-3.1,4.2c-1.6,1.6-2.6,3.5-2.5,5.8c0,0.3,0.1,0.4,0.4,0.5   c0.4,0.1,0.9,0.2,1.3,0.3c0.3,0.1,0.5,0,0.6-0.3c0.2-0.3,0.3-0.7,0.5-1c0.5-0.7,1.2-1.4,1.7-2.2c0.9-1.3,1.7-2.6,1.8-4.2   C40.7,4.3,40.6,3.2,40.2,2z"/>
	<path class="st0" d="M60.2,28.5c-0.2-0.1-0.2-0.1-0.3-0.1c-1.4,0.1-2.7-0.4-4-0.8c-1.5-0.5-3-0.9-4.5-0.7c-0.9,0.1-1.8,0.3-2.5,0.7   c-0.1,0.1-0.4,0.2-0.4,0.3c0,0.7,0,1.3,0.1,2c0.4-0.1,0.7-0.2,1-0.1c0.7,0.1,1.4,0.2,2.1,0.5c2.4,0.8,4.8,0.6,7-0.6   C59.1,29.4,59.6,28.9,60.2,28.5z"/>
	<path class="st0" d="M59,40.2C58.8,40,58.8,40,58.8,40c-1.6-1.1-3-2.3-4.3-3.6c-0.5-0.5-1.1-0.8-1.8-1c-1.2-0.4-2.4-0.4-3.6-0.3   c-0.4,0-0.8,0.1-1,0.3c-0.3,0.2-0.4,0.7-0.6,1c0.2,0.1,0.4,0.3,0.7,0.3c1,0.3,2,0.7,2.9,1.5c0.6,0.5,1.2,1,1.8,1.4   c1.2,0.8,2.4,1.3,3.9,1.1C57.4,40.6,58.1,40.4,59,40.2z"/>
	<path class="st0" d="M56.9,16.9l-0.1-0.1c-0.4,0.1-0.9,0.3-1.3,0.4c-1.5,0.3-3,0.5-4.5,0.8c-2,0.4-3.6,1.3-4.7,3   c-0.1,0.1-0.1,0.3-0.1,0.5c0.2,0.4,0.4,0.8,0.6,1.2c0.1,0.2,0.2,0.3,0.5,0.2c1-0.6,2.1-0.7,3.2-0.9c0.9-0.2,1.9-0.5,2.7-0.9   c1-0.5,1.6-1.4,2.3-2.2C56,18.2,56.5,17.5,56.9,16.9z"/>
	<path class="st0" d="M28.6,0c-0.1,0.2-0.1,0.2-0.1,0.2c-0.2,1.6-0.8,3-1.4,4.5c-0.5,1.3-0.8,2.7-0.7,4.1c0.1,1.2,0.5,2.3,1.1,3.4   c0.1,0.2,0.4,0.3,0.5,0.3c0.3,0,0.6,0,0.9-0.1s0.4-0.1,0.4-0.5c-0.1-0.6-0.2-1.2-0.1-1.8c0.1-0.8,0.3-1.7,0.5-2.5   c0.2-0.9,0.5-1.8,0.6-2.7c0.1-1.4-0.4-2.7-1.1-4C29,0.6,28.8,0.3,28.6,0z"/>
	<path class="st0" d="M5.3,19.6c0.1,0.1,0.1,0.1,0.1,0.2c1.2,0.4,2.2,1.3,3.2,2c0.9,0.7,1.9,1.4,3,1.4c0.8,0,1.7,0,2.5-0.1   c0.1,0,0.3-0.4,0.4-0.6c0-0.1-0.2-0.2-0.3-0.3c-0.4-0.3-0.9-0.6-1.3-0.9c-1-0.8-2.1-1.6-3.4-2C8.1,18.8,6.7,19.1,5.3,19.6z"/>
	<path class="st0" d="M51,11.4c-0.1,0-0.1,0-0.2,0c-0.1,0.1-0.2,0.3-0.4,0.4c-1.2,1.6-2.6,3-4.5,3.9c-0.6,0.3-1.1,0.8-1.5,1.2   c-0.9,0.9-0.8,1-0.1,2c0.3,0.3,0.5,0.4,0.9,0.2c2.6-1.2,4.4-3.1,5.3-5.8C50.8,12.7,50.9,12.1,51,11.4z"/>
	<path class="st0" d="M19,16.7c-0.5-0.8-1-1.5-1.5-2.3s-1.2-1.5-2.1-2c-0.8-0.4-1.5-0.8-2.4-1.2c-0.3-0.1-0.7-0.2-1-0.3   c0.5,0.9,1,1.8,1.5,2.7c0.7,1.3,1.6,2.3,3,3c0.4,0.2,0.8,0.3,1.2,0.5C18.5,17.3,18.6,17.3,19,16.7z"/>
	<path class="st0" d="M41.8,44.1c0.6,0.8,1.1,1.6,1.7,2.3c0.5,0.6,1.1,1.3,1.8,1.8c1,0.7,2.2,1.1,3.3,1.6c0.1,0,0.2,0,0.4,0.1   c0-0.1-0.1-0.2-0.1-0.2c-0.8-0.8-1.4-1.8-1.9-2.8c-0.8-1.5-2-2.6-3.6-3.1C42.4,43.5,42.3,43.5,41.8,44.1z"/>
	<path class="st0" d="M54.6,41.5c-0.8-0.6-1.6-1.1-2.4-1.6c-0.5-0.3-0.9-0.7-1.3-1c-1.1-0.7-2.4-1.1-3.8-1.1c-0.2,0-0.5,0.2-0.6,0.3   c-0.4,0.6-0.4,0.7,0.2,1.1c0.1,0.1,0.3,0.2,0.4,0.3c1.4,1.1,2.9,1.8,4.6,2C52.7,41.8,53.6,41.7,54.6,41.5z"/>
	<path class="st0" d="M20.8,5.6c0.5,1.7,0.9,3.2,1.3,4.8c0.3,1.2,1.1,2.1,2.1,2.8c0.4,0.3,0.6,0,0.9-0.1c0.1,0,0.2-0.2,0.2-0.3   c-0.2-0.9-0.3-1.9-0.7-2.8c-0.7-1.7-2-3.1-3.5-4.2C21,5.8,20.9,5.7,20.8,5.6z"/>
	<path class="st0" d="M3.8,29.8c1.4-0.1,2.6,0.3,3.9,0.7c1.9,0.5,3.6,0.2,5.2-0.9c0.2-0.1,0.2-0.5,0.3-0.7c-0.2,0-0.4-0.1-0.6-0.1   c-0.3,0-0.6,0-0.9,0c-1.5-0.3-3-0.4-4.5-0.2C5.9,28.7,4.8,29.1,3.8,29.8z"/>
	<path class="st0" d="M31.2,3.6c0,0.1,0,0.3,0,0.4c-0.2,1.5-0.4,3.1-0.7,4.6c-0.3,1.2,0,2.3,0.5,3.4c0.1,0.2,0.5,0.2,0.8,0.3   c0.1,0,0.3-0.1,0.4-0.2c0.2-0.7,0.4-1.5,0.6-2.2c0.3-1.1,0.2-2.3-0.1-3.4C32.3,5.5,32,4.5,31.2,3.6z"/>
	<path class="st0" d="M55,20.9c0,0-0.1-0.1-0.2-0.1c-0.2,0.2-0.4,0.3-0.7,0.5c-1.2,1-2.5,1.6-4,1.8c-0.9,0.1-1.6,0.5-2.3,1   c-0.3,0.2-0.2,1.5,0.1,1.6H48c0.7-0.1,1.5-0.1,2.2-0.3c1.5-0.5,2.7-1.4,3.6-2.7C54.3,22.2,54.6,21.5,55,20.9z"/>
	<path class="st0" d="M56.7,31.5L56.7,31.5c-0.2-0.1-0.4-0.1-0.5-0.1c-0.7,0-1.4,0-2.1-0.2c-1.6-0.2-3.2-0.3-4.8,0.2   c-0.8,0.2-0.8,0.3-0.8,1.1c0,0.3,0.1,0.4,0.4,0.4c2.5,0.5,4.9,0.2,7.1-1C56.2,31.9,56.4,31.7,56.7,31.5z"/>
	<path class="st0" d="M41.2,7c-0.1,0-0.1,0.1-0.1,0.1c-0.1,0.2-0.2,0.4-0.2,0.6c-0.3,1.4-0.8,2.7-1.9,3.8c-0.3,0.3-0.5,0.9-0.6,1.3   c-0.2,1-0.2,1,0.7,1.5l0,0c0.3,0.3,0.5,0.1,0.7-0.1c1.1-1.3,1.7-2.9,1.8-4.6C41.6,8.8,41.5,7.9,41.2,7z"/>
	<g>
		<path class="st0" d="M37.9,26.4L37.9,26.4c-0.1-0.1-0.2-0.1-0.4,0c-0.1-0.2-0.2-0.3-0.2-0.5c0.1-0.1,0.3-0.3,0.4-0.4    c-0.2,0-0.4-0.1-0.5-0.1c-0.2,0.1-0.3,0.2-0.5,0.3c-0.1,0.2-0.2,0.4-0.3,0.6c-0.2,0.1-0.4,0.2-0.7,0.3c0.1,0.2,0.3,0.4,0.4,0.6    c0.3-0.3,0.7-0.4,1.1-0.4C37.5,26.8,37.8,26.7,37.9,26.4z"/>
		<path class="st0" d="M37.3,31c0.3,0.1,0.5,0.2,0.8,0.2c0.2-0.1,0.4-0.2,0.6-0.4c-0.5-0.2-0.9-0.3-1.3-0.4    C37.2,30.6,37.2,30.6,37.3,31z"/>
		<path class="st0" d="M41.4,18.3c-4.4-3.8-9.5-5.1-15.2-3.5c-2.9,0.8-5.4,2.3-7.4,4.5c-3.6,4.2-4.7,9-3.3,14.3    c0.9,3.3,2.7,6.1,5.4,8.3c3.9,3.2,8.4,4.3,13.5,3.5c7.1-1.2,12.7-7.6,12.6-16.1C46.9,25.6,45.1,21.4,41.4,18.3z M26.2,21.1    c-0.3,0.1-0.7,0.2-1,0.4c-0.1-0.1-0.2-0.1-0.4-0.2c-0.3,0.1-0.5,0.2-0.7,0.2c-0.2,0.1-0.3,0.2-0.5,0.3c0-0.4,0.3-0.5,0.5-0.8    c0.1-0.3,0.2-0.6,0.3-0.9c-0.1-0.2-0.1-0.4-0.2-0.7c-0.6,0.2-1.2,0.3-1.5,0.8c-0.1,0.3,0.1,0.7-0.2,1c-0.2-0.1-0.5-0.2-0.8-0.4    c-0.1,0.4-0.1,0.7-0.2,1c-0.1,0.1-0.3,0.1-0.5,0.2c0,0.2,0.1,0.4,0.2,0.7c0,0.2,0,0.5-0.1,0.7c0.1,0,0.3,0,0.4,0    c0.4,0,0.7,0.2,0.9,0.5c0.2,0.4,0.5,0.8,0.5,1.2c0,0.3,0.2,0.7,0.4,1c0.1,0.3,0.4,0.6,0.5,0.8c0,0.3-0.1,0.5-0.1,0.8    c0,0.1-0.1,0.2-0.1,0.3c-0.1,0.1-0.2,0.2-0.2,0.3s0,0.3,0.1,0.4l0.1,0.1c0.3,0.2,0.4,0.6,0.4,0.9c0,0.3-0.1,0.6-0.2,0.9    c-0.2,0.1-0.4,0.1-0.6,0.2c0.1,0.3,0.3,0.6,0.4,0.9c0.2,0.5,0.5,1.1,0.7,1.7c0,0.1,0.1,0.3,0,0.4c-0.3,0.4-0.6,0.7-1,1    c-0.4,0.7-0.6,0.5-0.8,0.3c-0.6,0.1-1.1,0.1-1.7,0.2c-0.7,0-1.3,0.2-2,0.4c-0.4,0.1-0.7,0.3-0.8,0.7c0,0.1-0.1,0.2-0.2,0.3    c-0.1-0.2-0.2-0.3-0.3-0.5c-0.6-1.2-1.1-2.5-1.4-3.8C16,32.1,16,31.9,16,31.6c0-0.2,0-0.3,0.1-0.5c0.2-0.3,0.3-0.5,0.5-0.8    c0.4-0.5,0.4-1,0.1-1.5c-0.1-0.2-0.1-0.4-0.1-0.6c0-0.1,0.1-0.2,0.2-0.3s0.2-0.2,0.2-0.2c0.2-0.6,0.5-1.2,0.7-1.7    c0.1-0.2,0.1-0.3,0.1-0.5c0-0.3,0.1-0.5,0.3-0.6c0.2-0.2,0.4-0.3,0.7-0.5c0.1-0.4,0.5-0.6,0.8-0.7c0.2,0,0.4,0.1,0.6,0.1    c0.5-0.4,0.5-0.5,0.3-1.2c0-0.4,0.4-0.8,0.2-1.1c0.1-0.3,0.2-0.6,0.2-0.9c0-0.3,0.1-0.6,0.3-0.9c0.2-0.3,0.4-0.6,0.4-1    c0-0.2,0.2-0.5,0.3-0.7c0.2,0,0.3,0,0.4-0.1c0.2-0.2,0.2-0.4,0.3-0.6c0-0.4,0.2-0.6,0.5-0.8c1.2-0.7,2.5-1.2,3.9-1.5    c0.6-0.1,1.2-0.2,1.8-0.3c0.2,0.1,0.3,0.2,0.4,0.3c0.1,0,0.3,0,0.4,0c0.5,0.4,1,0.3,1.6,0.2c0.1,0.1,0.1,0.2,0.2,0.4    c0.7,0.5,1.5,0.7,2.3,0.2c0.1-0.3,0.3-0.5,0.6-0.7c0.1,0,0.3,0.1,0.5,0.1c0,0.1,0.1,0.2,0.1,0.4H35c0.3,0,0.5,0,0.6,0.3    c0,0.1-0.1,0.2-0.1,0.3c0,0.3,0.1,0.7,0.1,1c-0.2,0.2-0.5,0.2-0.7,0.3c-0.4-0.3-0.9-0.2-1.4-0.1c-0.2,0.3-0.4,0.6-0.9,0.5    c-0.1,0.3-0.3,0.5-0.4,0.8c0.2,0.2,0.3,0.3,0.5,0.6c-0.2,0.1-0.3,0.1-0.5,0.2c0,0.1,0,0.2-0.1,0.4c-0.1,0-0.3-0.1-0.4-0.1    c0-0.2,0-0.3,0-0.5c-0.3-0.1-0.6-0.2-0.9-0.3s-0.5-0.4-0.8-0.4c-0.5,0.5-0.6,1.3-1.3,1.7c0.3,0.5,0.7,0.5,1.1,0.1    c0.3,0,0.6,0,0.9,0c0.1,0.1,0.1,0.2,0,0.3s-0.1,0.2-0.2,0.2c-0.3,0.3-0.5,0.6-0.7,1c-0.1,0.3-0.3,0.5-0.5,0.8S29,23.1,28.6,23    c-0.3-0.3-0.1-0.8-0.4-1.1c-0.3,0.1-0.1,0.4-0.3,0.6c-0.3,0-0.4-0.2-0.5-0.4c-0.2-0.2-0.3-0.5-0.5-0.8    C26.6,21.3,26.4,21.2,26.2,21.1z M33.7,22.7c-0.4,0-0.7,0-1.1,0c-0.3,0-0.7,0.1-1,0.3c-0.2,0.1-0.5,0.2-0.7,0.4    c0-0.4,0.1-1,0.3-1.2c0.4-0.1,0.6-0.3,0.9-0.5c0.1-0.1,0.2-0.2,0.4-0.3c0.4-0.3,0.8-0.5,1-1c0,0,0.1-0.1,0.2-0.1    c0.4,0,0.8-0.1,1.2,0.1c0.2,0.3-0.1,0.7,0.3,1C34.7,21.8,33.9,22,33.7,22.7z M33.9,24.9c-0.3,0.3-0.5,0.6-0.7,0.9    c-0.4,0.1-0.7,0-1-0.3c0.1-0.1,0.2-0.2,0.3-0.3c0-0.1,0-0.2,0.1-0.3c0.2-0.1,0.3-0.2,0.5-0.3C33.4,24.6,33.6,24.7,33.9,24.9z     M45.8,34.5c-0.2,0.6-0.3,1.2-0.6,1.8c-0.1,0.1-0.1,0.3-0.3,0.3c-0.5-0.5-0.4-1.1-0.6-1.8c-0.2-0.2-0.5-0.3-0.8-0.5    c-0.7,0.2-1.4-0.1-2.1-0.3c-0.3-0.1-0.5-0.3-0.9-0.4c0.2,0.3,0.4,1.1,0.6,1.3c0.2,0.1,0.5,0.1,0.7,0c0.3-0.1,0.5,0.1,0.6,0.1    c0,0.1,0,0.2,0.1,0.3c0,0.1,0,0.2,0.1,0.3c-0.2,0.4-0.6,0.7-1,0.9c-0.3,0.2-0.5,0.5-0.9,0.5c-0.5,0-1,0.2-1.5-0.1    c0,0-0.1-0.1-0.2-0.1c0-0.3,0-0.6,0-0.9c0-0.3-0.1-0.6-0.3-0.9c-0.5-0.5-0.7-1-0.9-1.6c-0.1-0.3-0.2-0.5-0.5-0.7    c-0.2,0.2-0.1,0.1-0.2,0.2c-0.2,0.1-0.1,0-0.2,0.2v0.1c0.2,0.4,0.4,0.9,0.7,1.2c0.3,0.4,0.5,1,0.6,1.5c0.1,0.4,0.2,0.7,0.5,1    c0.1,0.2,0.2,0.3,0.3,0.5c0.5,0.1,1.1,0.1,1.6,0.4c-0.1,0.1-0.2,0.2-0.3,0.3c-0.2,0.2-0.5,0.3-0.7,0.5s-0.4,0.3-0.6,0.3    c-0.1,0-0.3,0.1-0.4,0.2c-0.2,0.2-0.4,0.4-0.6,0.5c-0.2,0.2-0.4,0.3-0.7,0.4c-0.2,0.4-0.4,0.8-0.6,1.2c-0.1,0.2-0.2,0.5-0.3,0.7    s-0.2,0.5-0.4,0.6c-0.5,0.2-0.9,0.7-1.2,1.2c-0.2,0.3-0.5,0.7-0.7,1c-1.2,0.2-2.4,0.3-3.6,0c0-0.1-0.1-0.1-0.1-0.2    c0.1-0.5,0-1,0.2-1.4c0.2-0.5,0-1-0.1-1.5c0-0.2-0.1-0.3-0.2-0.5c-0.3-0.4-0.2-0.8-0.1-1.3c0.1-0.4,0.1-0.8,0-1.3    c0-0.2,0-0.3,0-0.5c0.1-0.4,0.2-0.8,0.4-1.2c-0.3-0.4-0.6-0.8-0.9-1.1c-0.7-0.1-1.3-0.2-2-0.3c-0.3-0.6-0.5-1.3-0.7-2    c0-0.1,0-0.2,0-0.3c0.1-0.3,0.2-0.6,0.3-0.9c0.1-0.3,0.3-0.5,0.6-0.7c0.5-0.3,1-0.6,1.5-0.9c0.1-0.1,0.2-0.1,0.4-0.2    c0.2,0.1,0.4,0.1,0.5,0.2c0.2-0.3,0.3-0.6,0.5-0.8c0.3-0.2,0.6-0.4,0.9-0.5c0.4,0.3,0.8,0.5,1.2,0.6c0.1,0,0.1,0,0.2,0    c0.4,0.1,0.5,0.3,0.4,0.8c0.2,0.3,0.5,0.6,0.7,0.9c0.1,0,0.3,0,0.4,0c0.1,0.1,0.2,0.2,0.4,0.3c0.6,0.1,1.3,0.3,2,0.4    c0.1-0.1,0.2-0.3,0.3-0.5c-0.2-0.1-0.3-0.2-0.5-0.2c-0.3-0.3-0.1-0.7,0.1-1c-0.1,0-0.4,0.4-0.5,0.5c-0.2,0-0.3,0-0.5,0    c-0.4-0.3-0.1-0.8-0.4-1.1c-0.1,0.3,0.1,0.6-0.1,0.8c-0.3,0.1-0.5,0.2-0.9,0.4c-0.1-0.1-0.1-0.2-0.2-0.3c0.2-0.2,0.3-0.3,0.4-0.4    c-0.1-0.4-0.2-0.8-0.3-1.3c-0.1,0-0.3,0-0.5,0c-0.1-0.1-0.2-0.2-0.3-0.3c-0.4,0.2-0.7,0.5-1.1,0.8c-0.2-0.1-0.4-0.2-0.6-0.3    c-0.2-0.3-0.3-0.5-0.5-0.8c0.3-0.5,0.5-1,1.1-1.3c0.2,0.2,0.3,0.3,0.5,0.5c0.3-0.3,0-0.5-0.1-0.7c0-0.1,0.1-0.2,0.1-0.3    c0-0.2,0.1-0.2,0.2-0.2c-0.2-0.1-0.4-0.2-0.5-0.3c0.1-0.4,0.4-0.3,0.6-0.4c0.3-0.2,0.5-0.4,0.8-0.7c0-0.1,0-0.2,0.1-0.5    c0.1-0.1,0.2-0.2,0.4-0.2c0.1,0.1,0.2,0.1,0.2,0.2c0.2,0.1,0.5,0.1,0.6,0.2c0.1,0,0.1,0.2,0.1,0.4c-0.2,0.1-0.4,0.2-0.6,0.2    c-0.2,0.2-0.1,0.4-0.1,0.6c0,0.4-0.1,0.5-0.5,0.5c-0.1,0-0.3,0-0.5,0c-0.2-0.1-0.4-0.1-0.6,0c0.4,0.2,0.8,0.4,1.3,0.2    c0.2-0.2,0.4-0.4,0.7-0.4c0.2,0,0.3-0.2,0.5-0.3c0-0.1-0.1-0.1-0.1-0.2c0.6-0.5,1.2-0.9,1.8-1.4c0.5,0.2,0.9,0.5,1.4,0.7    c0-0.1,0-0.2,0-0.3c0-0.2,0-0.3,0.1-0.4c0.4-0.4,0.4-0.9,0.6-1.4c0.1-0.2,0.2-0.3,0.2-0.5c0.2-0.5,0.3-1,0.2-1.5    c-0.1-0.3-0.1-0.7-0.1-1.1c-0.4-0.2-0.7-0.3-1-0.5c-0.1-0.3-0.3-0.5-0.4-0.8c0.3-0.1,0.5-0.2,0.7-0.3c0.4,0.1,0.8,0.1,1.3,0.2    c1.3,0.9,2.4,2.2,3.3,3.5c0.5,0.8,0.9,1.6,1.3,2.4c0.3,0.7,0.6,1.5,0.8,2.3c0.2,1,0.5,2,0.5,3.1c0,0.5,0,1.1,0,1.6    C46.3,32.5,46.1,33.5,45.8,34.5z"/>
	</g>
</g>
<g class="st1">
	<path class="st2" d="M88.6,18.8c-2.1-0.8-4.3-1.3-6.7-1.3c-4.9,0-8.3,3.1-8.3,8.4c0,5.1,2.7,8.1,7.7,8.1c1,0,2-0.1,2.9-0.4V25h5.3   v12.1c-2.5,1-5.6,1.6-8.7,1.6C72.7,38.7,68,34,68,26.3c0-7.9,5.5-13.6,14.3-13.6c2.5,0,5,0.4,7.2,1.1L88.6,18.8z"/>
	<path class="st2" d="M104.6,24.6c-3.5-0.7-5.2,1.4-5.2,6.3v7.6h-5.2V19.9H99c0,0.9,0,2.3-0.3,3.5h0.1c0.9-2.3,2.7-4.3,6.1-4   L104.6,24.6z"/>
	<path class="st2" d="M122.9,30.2h-11.3c0,3.1,1.6,4.6,4.9,4.6c1.8,0,3.8-0.4,5.5-1.2l0.5,4c-2.1,0.8-4.4,1.2-6.8,1.2   c-6,0-9.3-2.9-9.3-9.5c0-5.7,3.1-9.9,8.8-9.9c5.5,0,7.9,3.7,7.9,8.4C123.1,28.6,123,29.4,122.9,30.2z M118,26.7   c0.1-2.2-1-3.5-3-3.5c-1.9,0-3.2,1.4-3.4,3.5H118z"/>
	<path class="st2" d="M142.2,30.2h-11.3c0,3.1,1.6,4.6,4.9,4.6c1.8,0,3.8-0.4,5.5-1.2l0.5,4c-2.1,0.8-4.4,1.2-6.8,1.2   c-6,0-9.3-2.9-9.3-9.5c0-5.7,3.1-9.9,8.8-9.9c5.5,0,7.9,3.7,7.9,8.4C142.4,28.6,142.3,29.4,142.2,30.2z M137.2,26.7   c0.1-2.2-1-3.5-3-3.5c-1.9,0-3.2,1.4-3.4,3.5H137.2z"/>
	<path class="st2" d="M157.4,38.5V26.7c0-1.8-0.4-2.8-2.1-2.8c-2.3,0-4.1,2.7-4.1,5.7v9H146V20h4.8c0,0.8,0,2.2-0.2,3.1l0,0   c1.2-2.1,3.2-3.6,6.2-3.6c4.2,0,5.5,2.7,5.5,5.9v13.1H157.4L157.4,38.5z"/>
	<path class="st2" d="M182.6,29.8c-0.5,0-1,0-1.5,0v8.7h-5.2V13.3c2.1-0.1,4.4-0.1,6.9-0.1c6.4,0,9.7,2.8,9.7,7.9   C192.5,25.9,188.9,29.8,182.6,29.8z M182.6,17.4c-0.5,0-1,0-1.5,0v8c0.4,0.1,0.9,0.1,1.3,0.1c2.8,0,4.7-1.5,4.7-4.2   C187.1,18.9,185.8,17.4,182.6,17.4z"/>
	<path class="st2" d="M205,38.5c0-1,0-2.1,0.2-3l0,0c-0.9,2.1-3.1,3.4-5.8,3.4c-3.4,0-5.3-2-5.3-5c0-4.5,4.4-6.8,10.6-6.8v-0.9   c0-1.8-0.9-2.7-3.5-2.7c-1.7,0-3.9,0.6-5.5,1.4l-0.4-4.3c1.9-0.6,4.3-1.1,6.7-1.1c6.1,0,7.9,2.5,7.9,6.5v7.8c0,1.5,0,3.1,0.1,4.6   L205,38.5L205,38.5z M204.6,30.3c-4.7,0-5.8,1.3-5.8,2.8c0,1.1,0.8,1.8,2.1,1.8c2.2,0,3.7-2,3.7-4.1L204.6,30.3L204.6,30.3z"/>
	<path class="st2" d="M225.1,24.6c-3.5-0.7-5.2,1.4-5.2,6.3v7.6h-5.2V19.9h4.8c0,0.9,0,2.3-0.3,3.5h0.1c0.9-2.3,2.7-4.3,6.1-4   L225.1,24.6z"/>
	<path class="st2" d="M239.4,38.4c-1.2,0.3-2.8,0.5-4.1,0.5c-4.2,0-5.5-1.5-5.5-5.9v-9.1h-3v-4h3v-5.6l5.1-1.3v7h4.3v4h-4.3v7.8   c0,2.2,0.5,2.9,2.1,2.9c0.7,0,1.3-0.1,2-0.3L239.4,38.4z"/>
	<path class="st2" d="M251.9,39.8c-2.2,5.8-4.3,7.8-9,7.8c-0.7,0-1.6-0.1-2.4-0.3l0.6-4.4c0.7,0.3,1.5,0.4,2.4,0.4   c1.6,0,2.5-0.8,3.5-3.5l0.5-1.4l-6.8-18.6h5.7l2.2,6.4c0.6,1.6,1.1,3.5,1.5,5.2l0,0c0.4-1.8,1.2-4.2,1.8-5.9l2-5.7h5.5L251.9,39.8z   "/>
</g>
</svg>